<?xml version="1.0" encoding="utf-8"?>
<!-- Generator: Adobe Illustrator 19.0.0, SVG Export Plug-In . SVG Version: 6.00 Build 0)  -->
<svg version="1.1" id="Layer_1" xmlns="http://www.w3.org/2000/svg" xmlns:xlink="http://www.w3.org/1999/xlink" x="0px" y="0px"
	 viewBox="0 0 512 512" style="enable-background:new 0 0 512 512;" xml:space="preserve">
<g id="XMLID_1_">
	<path id="XMLID_3_" d="M10.2,256l-6.3,4.7c0,0.8,22.8,30.7,65.3,61.3s105.4,60.6,187.2,60.6c81,0,144.7-30.7,187.2-60.6
		c42.5-30.7,64.5-60.6,65.3-61.3l3.1-4.7l-3.1-4.7c0-0.8-22.8-30.7-65.3-61.3s-105.4-60.6-187.2-60.6c-81,0-144.7,30.7-187.2,60.6
		c-42.5,30.7-64.5,60.6-65.3,61.3L0,256l3.1,4.7L10.2,256l6.3,4.7l0,0c2.4-3.1,24.4-32.2,65.3-60.6c40.9-28.3,99.1-55.1,173.8-55.1
		c77.1,0,136.8,29.1,177.7,58.2c20.4,14.2,36.2,29.1,46.4,40.1c5.5,5.5,9.4,10.2,11.8,13.4c1.6,1.6,2.4,3.1,3.1,3.9l0.8,0.8l0,0
		l6.3-4.7l-6.3-4.7l0,0c-2.4,3.1-24.4,32.2-65.3,60.6c-40.9,28.3-99.1,55.1-173.8,55.1c-77.1,0-136.8-29.1-177.7-58.2
		c-20.4-14.2-36.2-29.1-46.4-40.1c-5.5-5.5-9.4-10.2-12.6-13.4c-1.6-1.6-2.4-3.1-3.1-3.9l-0.8-0.8l0,0L10.2,256l6.3,4.7L10.2,256z"
		/>
	<path id="XMLID_4_" d="M255.6,200.2v7.9c13.4,0,25.2,5.5,33.8,14.2c8.7,8.7,14.2,20.4,14.2,33.8s-5.5,25.2-14.2,33.8
		c-8.7,8.7-20.4,13.4-33.8,13.4c-13.4,0-25.2-5.5-33.8-14.2c-8.7-7.9-13.4-19.7-13.4-33s5.5-25.2,14.2-33.8
		c8.7-8.7,20.4-14.2,33.8-14.2v-7.9v-7.9c-35.4,0-63.7,28.3-63.7,63.7s28.3,63.7,63.7,63.7s63.7-28.3,63.7-63.7
		s-28.3-63.7-63.7-63.7v7.9H255.6z"/>
</g>
</svg>
