<svg width="22" height="22" viewBox="0 0 22 22" fill="none" xmlns="http://www.w3.org/2000/svg">
<g clip-path="url(#clip0_1259_10655)">
<path d="M11 0C4.93488 0 0 4.93488 0 11C0 13.1147 0.592625 15.1456 1.716 16.896L0.0495 21.0567C-0.05225 21.3125 0.00687499 21.604 0.202125 21.7992C0.33275 21.9299 0.50875 22 0.6875 22C0.774125 22 0.859375 21.9835 0.94325 21.9505L5.104 20.284C6.85437 21.4074 8.88525 22 11 22C17.0651 22 22 17.0651 22 11C22 4.93488 17.0651 0 11 0ZM11 20.625C9.03925 20.625 7.16237 20.0448 5.57425 18.9461C5.45875 18.865 5.32125 18.8237 5.18375 18.8237C5.09713 18.8237 5.0105 18.8403 4.928 18.8732L1.92225 20.0778L3.12675 17.072C3.212 16.8575 3.1845 16.6141 3.05387 16.4258C1.95525 14.8376 1.375 12.9607 1.375 11C1.375 5.6925 5.6925 1.375 11 1.375C16.3075 1.375 20.625 5.6925 20.625 11C20.625 16.3075 16.3075 20.625 11 20.625Z" fill="#1D4ED8"/>
</g>
<defs>
<clipPath id="clip0_1259_10655">
<rect width="22" height="22" fill="white"/>
</clipPath>
</defs>
</svg>
