<svg width="19" height="18" viewBox="0 0 19 18" fill="none" xmlns="http://www.w3.org/2000/svg">
<path d="M3.96155 15.428L1.86952 17.52C1.58149 17.808 1.25162 17.8726 0.879904 17.7137C0.508191 17.5549 0.322637 17.2705 0.323244 16.8605V2.69391C0.323244 2.19364 0.50152 1.76553 0.858074 1.40959C1.21463 1.05364 1.64273 0.875362 2.14239 0.874756H16.6956C17.1959 0.874756 17.6243 1.05303 17.9808 1.40959C18.3374 1.76614 18.5154 2.19425 18.5148 2.69391V13.6088C18.5148 14.1091 18.3368 14.5375 17.9808 14.894C17.6249 15.2506 17.1965 15.4286 16.6956 15.428H3.96155ZM5.7807 9.06094C6.03841 9.06094 6.25459 8.97362 6.42922 8.79898C6.60386 8.62434 6.69088 8.40847 6.69027 8.15136C6.68967 7.89425 6.60235 7.67838 6.42831 7.50374C6.25428 7.3291 6.03841 7.24178 5.7807 7.24178C5.52298 7.24178 5.30711 7.3291 5.13308 7.50374C4.95905 7.67838 4.87173 7.89425 4.87112 8.15136C4.87051 8.40847 4.95783 8.62464 5.13308 8.79989C5.30832 8.97513 5.5242 9.06215 5.7807 9.06094ZM9.419 9.06094C9.67671 9.06094 9.89289 8.97362 10.0675 8.79898C10.2422 8.62434 10.3292 8.40847 10.3286 8.15136C10.328 7.89425 10.2406 7.67838 10.0666 7.50374C9.89258 7.3291 9.67671 7.24178 9.419 7.24178C9.16129 7.24178 8.94541 7.3291 8.77138 7.50374C8.59735 7.67838 8.51003 7.89425 8.50942 8.15136C8.50882 8.40847 8.59614 8.62464 8.77138 8.79989C8.94663 8.97513 9.1625 9.06215 9.419 9.06094ZM13.0573 9.06094C13.315 9.06094 13.5312 8.97362 13.7058 8.79898C13.8805 8.62434 13.9675 8.40847 13.9669 8.15136C13.9663 7.89425 13.879 7.67838 13.7049 7.50374C13.5309 7.3291 13.315 7.24178 13.0573 7.24178C12.7996 7.24178 12.5837 7.3291 12.4097 7.50374C12.2357 7.67838 12.1483 7.89425 12.1477 8.15136C12.1471 8.40847 12.2344 8.62464 12.4097 8.79989C12.5849 8.97513 12.8008 9.06215 13.0573 9.06094Z" fill="#6B7280"/>
</svg>
