<svg width="30" height="30" viewBox="0 0 30 30" fill="none" xmlns="http://www.w3.org/2000/svg">
<g clip-path="url(#clip0_0_7813)">
<path d="M15 0.5C23.0081 0.5 29.5 6.99187 29.5 15C29.5 23.0081 23.0081 29.5 15 29.5C6.99187 29.5 0.5 23.0081 0.5 15C0.5 6.99187 6.99187 0.5 15 0.5Z" fill="#004BFE" stroke="#004BFE"/>
<path d="M14.8649 17.2391L20.5366 11.5629C20.9564 11.1431 21.6352 11.1431 22.0506 11.5629C22.4659 11.9827 22.4659 12.6615 22.0506 13.0813L15.6241 19.5123C15.2177 19.9187 14.5656 19.9276 14.1458 19.5435L7.67468 13.0858C7.46478 12.8759 7.36206 12.599 7.36206 12.3266C7.36206 12.0542 7.46478 11.7773 7.67468 11.5674C8.09448 11.1476 8.7733 11.1476 9.18863 11.5674L14.8649 17.2391Z" fill="white"/>
</g>
<defs>
<clipPath id="clip0_0_7813">
<rect width="30" height="30" fill="white"/>
</clipPath>
</defs>
</svg>
