<svg width="50" height="50" viewBox="0 0 50 50" fill="none" xmlns="http://www.w3.org/2000/svg">
<path d="M25 50C38.8071 50 50 38.8071 50 25C50 11.1929 38.8071 0 25 0C11.1929 0 0 11.1929 0 25C0 38.8071 11.1929 50 25 50Z" fill="#E5EBFC"/>
<g clip-path="url(#clip0_0_3800)">
<path d="M25 13C31.6274 13 37 18.3726 37 25C37 31.6274 31.6274 37 25 37C18.3726 37 13 31.6274 13 25C13 18.3726 18.3726 13 25 13Z" fill="#004CFF" stroke="white" stroke-width="2"/>
<path d="M29.024 22.6089L24.2417 27.3911L22.068 25.2174" stroke="white" stroke-width="3" stroke-linecap="round" stroke-linejoin="round"/>
</g>
<defs>
<clipPath id="clip0_0_3800">
<rect width="22" height="22" fill="white" transform="translate(14 14)"/>
</clipPath>
</defs>
</svg>
