<svg width="30" height="30" viewBox="0 0 30 30" fill="none" xmlns="http://www.w3.org/2000/svg">
<path d="M15 30C23.2843 30 30 23.2843 30 15C30 6.71573 23.2843 0 15 0C6.71573 0 0 6.71573 0 15C0 23.2843 6.71573 30 15 30Z" fill="#FFEBEB"/>
<path d="M24.0778 13.5634L17.601 8.19172C17.523 8.12661 17.4495 8.08999 17.344 8.09406C17.142 8.1022 16.8849 8.22835 16.8849 8.41962V11.1136C16.8849 11.195 16.8115 11.2683 16.7197 11.2805C10.2796 12.1554 7.5668 16.4284 6.60745 20.8641C6.57073 21.0391 6.83696 21.2019 6.9609 21.0635C9.31109 18.4387 12.1708 16.7254 16.6922 16.6929C16.7931 16.6929 16.8849 16.7987 16.8849 16.8882V19.5334C16.8849 19.8182 17.3118 19.9444 17.5505 19.7491L24.0732 14.2837C24.1926 14.1861 24.2293 14.0721 24.2339 13.9419C24.2293 13.8117 24.1926 13.6611 24.0778 13.5634Z" fill="#B5A2A2"/>
</svg>
